<svg width="24" height="23" viewBox="0 0 24 23" fill="none" xmlns="http://www.w3.org/2000/svg">
<g id="savings">
<path id="Vector" d="M15 10.4079C15 9.89699 15.45 9.47898 16 9.47898C16.55 9.47898 17 9.89699 17 10.4079C17 10.9188 16.55 11.3368 16 11.3368C15.45 11.3368 15 10.9188 15 10.4079ZM8 9.47898H13V7.62115H8V9.47898ZM22 8.0856V14.5602L19.18 15.4333L17.5 20.626H12V18.7681H10V20.626H4.5C4.5 20.626 2 12.7673 2 9.94344C2 7.11953 4.46 4.8344 7.5 4.8344H12.5C13.41 3.71041 14.86 2.97656 16.5 2.97656C17.33 2.97656 18 3.59894 18 4.36994C18 4.56501 17.96 4.7415 17.88 4.90871C17.74 5.22454 17.62 5.58682 17.56 5.97696L19.83 8.0856H22ZM20 9.94344H19L15.5 6.69223C15.5 6.08843 15.59 5.49393 15.76 4.918C14.79 5.15023 14 5.81905 13.67 6.69223H7.5C5.57 6.69223 4 8.15063 4 9.94344C4 11.6898 5.22 16.1207 6.01 18.7681H8V16.9103H14V18.7681H16.01L17.56 13.9842L20 13.2225V9.94344Z" fill="#6B7280"/>
</g>
</svg>
